HIERARCHY
ROOT Hips
{
	OFFSET -0.001795 -0.223333 0.028219
	CHANNELS 6 Xposition Yposition Zposition Zrotation Yrotation Xrotation 
	JOINT LeftUpLeg
	{
		OFFSET 0.069520 -0.091406 -0.006815
		CHANNELS 3 Zrotation Yrotation Xrotation
		JOINT LeftLeg
		{
			OFFSET 0.034277 -0.375199 -0.004496
			CHANNELS 3 Zrotation Yrotation Xrotation
			JOINT LeftFoot
			{
				OFFSET -0.013596 -0.397961 -0.043693
				CHANNELS 3 Zrotation Yrotation Xrotation
				JOINT LeftToe
				{
					OFFSET 0.026358 -0.055791 0.119288
					CHANNELS 3 Zrotation Yrotation Xrotation
					End Site
					{
						OFFSET 0.000000 0.000000 0.000000
					}
				}
			}
		}
	}
	JOINT RightUpLeg
	{
		OFFSET -0.067670 -0.090522 -0.004320
		CHANNELS 3 Zrotation Yrotation Xrotation
		JOINT RightLeg
		{
			OFFSET -0.038290 -0.382569 -0.008850
			CHANNELS 3 Zrotation Yrotation Xrotation
			JOINT RightFoot
			{
				OFFSET 0.015774 -0.398415 -0.042312
				CHANNELS 3 Zrotation Yrotation Xrotation
				JOINT RightToe
				{
					OFFSET -0.025372 -0.048144 0.123348
					CHANNELS 3 Zrotation Yrotation Xrotation
					End Site
					{
						OFFSET 0.000000 0.000000 0.000000
					}
				}
			}
		}
	}
	JOINT Spine
	{
		OFFSET -0.002533 0.108963 -0.026696
		CHANNELS 3 Zrotation Yrotation Xrotation
		JOINT Spine1
		{
			OFFSET 0.005487 0.135180 0.001092
			CHANNELS 3 Zrotation Yrotation Xrotation
			JOINT Spine2
			{
				OFFSET 0.001457 0.052922 0.025425
				CHANNELS 3 Zrotation Yrotation Xrotation
				JOINT Neck
				{
					OFFSET -0.002778 0.213870 -0.042857
					CHANNELS 3 Zrotation Yrotation Xrotation
					JOINT Head
					{
						OFFSET 0.005152 0.064970 0.051349
						CHANNELS 3 Zrotation Yrotation Xrotation
						End Site
						{
							OFFSET 0.000000 0.000000 0.000000
						}
					}
				}
				JOINT LeftShoulder
				{
					OFFSET 0.078845 0.121749 -0.034090
					CHANNELS 3 Zrotation Yrotation Xrotation
					JOINT LeftArm
					{
						OFFSET 0.090977 0.030469 -0.008868
						CHANNELS 3 Zrotation Yrotation Xrotation
						JOINT LeftForeArm
						{
							OFFSET 0.259612 -0.012772 -0.027456
							CHANNELS 3 Zrotation Yrotation Xrotation
							JOINT LeftHand
							{
								OFFSET 0.249234 0.008986 -0.001171
								CHANNELS 3 Zrotation Yrotation Xrotation
								End Site
								{
									OFFSET 0.000000 0.000000 0.000000
								}
							}
						}
					}
				}
				JOINT RightShoulder
				{
					OFFSET -0.081759 0.118833 -0.038615
					CHANNELS 3 Zrotation Yrotation Xrotation
					JOINT RightArm
					{
						OFFSET -0.096012 0.032551 -0.009143
						CHANNELS 3 Zrotation Yrotation Xrotation
						JOINT RightForeArm
						{
							OFFSET -0.253742 -0.013329 -0.021401
							CHANNELS 3 Zrotation Yrotation Xrotation
							JOINT RightHand
							{
								OFFSET -0.255298 0.007772 -0.005559
								CHANNELS 3 Zrotation Yrotation Xrotation
								End Site
								{
									OFFSET 0.000000 0.000000 0.000000
								}
							}
						}
					}
				}
			}
		}
	}
}
MOTION
Frames: 16
Frame Time: 0.050000
-0.013884 0.952228 -0.024164 -0.294303 -4.026001 3.140101 8.233560 -0.241783 -9.000416 -2.545092 0.297727 0.045012 2.991786 10.489462 20.442895 0.000000 0.000000 0.000000 -9.998068 0.430030 -0.432057 4.744727 -0.446437 -1.930996 -9.022681 -21.666165 23.396717 0.000000 0.000000 0.000000 3.452679 -1.168045 16.840094 -7.406637 2.613513 -16.602048 -3.503382 11.667369 29.765438 19.291762 -9.976526 -22.132658 0.000000 0.000000 0.000000 -1.483265 -20.406230 6.741168 -47.961473 -27.629034 2.106867 -31.671888 -55.169312 18.571879 0.000000 0.000000 0.000000 14.730619 6.155170 4.182029 41.153412 14.575116 -1.963765 81.867895 47.103851 48.085456 0.000000 0.000000 0.000000 
-0.013222 0.951841 -0.028203 -0.496964 -3.803366 3.197833 8.694088 -0.221264 -9.637074 -2.994038 0.346829 0.517854 2.897357 10.388755 20.401169 0.000000 0.000000 0.000000 -9.703298 0.416919 -0.746511 4.925350 -0.464769 -1.422604 -9.283603 -22.013609 22.331082 0.000000 0.000000 0.000000 3.507795 -1.228641 17.557499 -7.713339 2.687215 -17.141066 -3.273648 12.599083 30.183653 20.018990 -10.112277 -22.921343 0.000000 0.000000 0.000000 -2.487962 -21.663265 7.167057 -48.854827 -29.904254 3.048241 -24.412747 -54.173858 14.217910 0.000000 0.000000 0.000000 14.440208 7.106070 4.822956 40.173029 16.952060 -1.250569 81.175008 49.301384 49.995287 0.000000 0.000000 0.000000 
-0.013046 0.951929 -0.032806 -0.538700 -3.599923 3.681355 8.877502 -0.229711 -10.558234 -3.198228 0.369667 0.596143 2.787388 10.312092 20.702637 0.000000 0.000000 0.000000 -9.571757 0.429630 -1.554959 5.015645 -0.476401 -0.772165 -9.227808 -21.936193 21.019749 0.000000 0.000000 0.000000 3.193453 -1.216184 18.081345 -7.932577 2.749400 -17.183540 -3.312876 13.021808 30.085115 20.487886 -10.143792 -23.560255 0.000000 0.000000 0.000000 -2.732336 -22.481881 7.428680 -49.476510 -32.003801 3.979817 -18.643563 -53.766608 11.079011 0.000000 0.000000 0.000000 13.679620 8.480343 5.487058 39.016034 19.513330 -0.431378 81.203366 51.886115 52.601579 0.000000 0.000000 0.000000 
-0.013134 0.952275 -0.037009 -0.739861 -3.576466 4.210831 9.038327 -0.231185 -11.164483 -3.024027 0.349834 0.181416 2.748651 10.322409 21.110752 0.000000 0.000000 0.000000 -9.301121 0.446417 -2.352752 5.037887 -0.477463 -0.747776 -9.282928 -22.017624 21.004715 0.000000 0.000000 0.000000 3.070763 -1.223606 18.466098 -8.298095 2.826324 -17.714504 -2.955435 13.953601 30.611007 20.767972 -10.185805 -23.672092 0.000000 0.000000 0.000000 -2.544130 -23.508974 7.707776 -49.480775 -34.054742 4.704663 -14.010271 -53.119603 8.492441 0.000000 0.000000 0.000000 11.764034 9.048286 5.562179 38.631896 21.293482 0.225505 83.119951 54.343953 57.009699 0.000000 0.000000 0.000000 
-0.013265 0.952978 -0.040377 -0.778357 -3.430298 4.631376 8.981687 -0.250805 -11.438513 -2.799541 0.327898 -0.578215 2.606095 10.230115 21.620561 0.000000 0.000000 0.000000 -9.189452 0.457540 -2.778895 4.856206 -0.461919 -0.932336 -9.008951 -21.614875 20.920575 0.000000 0.000000 0.000000 2.866015 -1.211975 18.772751 -8.500360 2.881754 -17.728065 -3.180339 14.221992 30.427544 21.064949 -10.383003 -23.490047 0.000000 0.000000 0.000000 -1.785994 -24.110891 7.835502 -49.797674 -35.374019 5.253649 -10.673502 -52.865992 6.757160 0.000000 0.000000 0.000000 10.438624 9.630541 5.620652 38.146108 23.084053 0.896995 84.751921 56.247054 60.433128 0.000000 0.000000 0.000000 
-0.013455 0.953551 -0.042756 -0.860775 -3.431261 4.953022 8.983877 -0.255817 -11.266636 -2.592630 0.316832 -1.749258 2.528272 10.202310 22.116374 0.000000 0.000000 0.000000 -9.057061 0.461339 -2.772389 4.806727 -0.455356 -1.560036 -8.734267 -21.219626 20.635479 0.000000 0.000000 0.000000 2.777728 -1.200294 18.800156 -8.836673 2.977168 -17.732222 -2.974681 14.556818 30.549756 21.117130 -10.280716 -23.701329 0.000000 0.000000 0.000000 -1.134736 -24.631183 7.941815 -49.918735 -37.217136 5.982527 -7.329351 -51.747663 4.967982 0.000000 0.000000 0.000000 8.571187 10.019640 5.448146 38.440714 24.947510 1.725839 84.463136 58.507631 62.672621 0.000000 0.000000 0.000000 
-0.013866 0.953933 -0.044607 -0.746665 -3.226046 5.029806 8.709918 -0.286234 -11.151435 -2.284767 0.293964 -2.398942 2.352053 10.053788 22.440812 0.000000 0.000000 0.000000 -9.132523 0.460832 -2.813714 4.823416 -0.457772 -1.925639 -8.956000 -21.514621 21.149740 0.000000 0.000000 0.000000 2.539495 -1.165091 18.871717 -9.045751 3.038891 -17.776801 -2.946265 14.454336 30.550313 21.051058 -10.349814 -23.342939 0.000000 0.000000 0.000000 -0.241119 -24.918525 7.963953 -50.103033 -39.009809 6.733243 -5.185506 -50.964747 3.901084 0.000000 0.000000 0.000000 7.422227 10.788629 5.537747 38.784557 27.443069 2.749997 80.327024 61.142843 61.586264 0.000000 0.000000 0.000000 
-0.014719 0.953738 -0.046248 -0.767773 -2.896669 5.110541 8.823054 -0.285582 -10.961616 -2.349408 0.309615 -3.195526 2.137375 9.855692 22.638602 0.000000 0.000000 0.000000 -9.008602 0.454075 -2.923322 4.620137 -0.445070 -2.315446 -9.172532 -21.778930 22.124554 0.000000 0.000000 0.000000 2.335307 -1.137708 18.878197 -9.188164 3.110144 -17.382755 -2.912059 14.533367 30.282432 20.934196 -10.247552 -23.176678 0.000000 0.000000 0.000000 1.237893 -25.494432 8.007190 -50.288448 -41.486084 7.755398 -3.126425 -49.678784 2.840987 0.000000 0.000000 0.000000 5.674013 11.474579 5.468755 40.434956 30.812454 4.494703 70.609052 64.030474 56.058904 0.000000 0.000000 0.000000 
-0.016047 0.953558 -0.047886 -0.726994 -2.848355 4.980868 8.778955 -0.285994 -10.803905 -2.196830 0.299891 -3.424734 2.070833 9.799757 22.767287 0.000000 0.000000 0.000000 -8.921653 0.448011 -2.925751 4.504484 -0.436878 -2.623488 -9.473206 -22.178243 22.964711 0.000000 0.000000 0.000000 1.691009 -1.029500 19.206767 -9.168872 3.109248 -17.346040 -2.710443 14.637761 30.223447 20.977405 -10.460939 -22.581488 0.000000 0.000000 0.000000 2.712733 -26.415621 8.135431 -50.365275 -44.562561 9.042949 -0.226717 -48.333497 1.503999 0.000000 0.000000 0.000000 4.907935 12.954106 5.911155 41.700859 34.359188 6.288446 53.884205 66.178812 44.152405 0.000000 0.000000 0.000000 
-0.017792 0.953423 -0.049365 -0.655459 -2.670659 4.980805 9.052420 -0.268103 -10.697986 -2.613620 0.339382 -3.847678 1.931723 9.685770 22.994215 0.000000 0.000000 0.000000 -8.837225 0.442593 -2.952596 4.175872 -0.415549 -2.999754 -9.463458 -22.128364 23.786943 0.000000 0.000000 0.000000 0.984069 -0.902834 19.365982 -9.019283 3.082197 -17.110590 -2.579750 14.834242 30.102515 20.837620 -10.283106 -22.625596 0.000000 0.000000 0.000000 4.078073 -27.346487 8.250865 -49.921099 -48.133786 10.383343 2.380274 -45.996767 0.351675 0.000000 0.000000 0.000000 3.901922 13.775614 6.020304 43.704594 38.472372 8.779636 35.738461 65.943014 30.367823 0.000000 0.000000 0.000000 
-0.019757 0.953642 -0.050646 -0.676875 -2.723528 4.885499 9.119490 -0.257824 -10.587438 -2.458928 0.328851 -3.964130 1.901815 9.678049 23.214362 0.000000 0.000000 0.000000 -8.740794 0.439519 -2.952488 4.101972 -0.410599 -3.253293 -9.416517 -22.057935 24.453369 0.000000 0.000000 0.000000 0.231910 -0.763124 19.676665 -8.733631 2.996266 -17.123301 -2.500269 15.051301 30.095098 20.953498 -10.334508 -22.617066 0.000000 0.000000 0.000000 5.919036 -28.068649 8.235408 -49.898873 -51.543089 11.770998 6.173562 -44.395773 -1.154151 0.000000 0.000000 0.000000 2.978589 14.723474 6.172446 46.886025 42.373892 11.888512 18.846099 63.783942 17.799997 0.000000 0.000000 0.000000 
-0.021732 0.953926 -0.051686 -0.738027 -2.502374 4.776798 9.291808 -0.247111 -10.464768 -2.436136 0.328731 -4.157135 1.727178 9.525215 23.416358 0.000000 0.000000 0.000000 -8.521484 0.427705 -2.933798 4.094278 -0.413099 -3.475706 -9.862170 -22.599374 25.413422 0.000000 0.000000 0.000000 -0.433264 -0.642972 19.829825 -8.587468 2.959963 -17.103447 -2.387864 15.087432 30.115376 20.711472 -10.120818 -22.660608 0.000000 0.000000 0.000000 7.600006 -29.313170 8.326309 -48.009129 -55.099089 12.498549 9.424868 -41.039819 -2.243280 0.000000 0.000000 0.000000 1.784554 15.735776 6.256833 49.976492 45.874330 15.191611 5.172967 60.099904 8.276221 0.000000 0.000000 0.000000 
-0.023592 0.954646 -0.052840 -0.761055 -2.432437 4.374655 9.257653 -0.241266 -10.207552 -2.147209 0.303390 -3.978674 1.602798 9.416090 23.606305 0.000000 0.000000 0.000000 -8.322216 0.410871 -2.808151 4.225405 -0.422862 -3.226218 -10.385394 -23.260117 25.849007 0.000000 0.000000 0.000000 -1.261950 -0.493795 20.437483 -8.472202 2.903343 -17.653058 -2.043916 15.162768 30.671826 20.416240 -9.890148 -22.765145 0.000000 0.000000 0.000000 9.596728 -30.346997 8.262260 -45.540006 -58.712033 12.775668 12.602211 -37.219605 -3.049973 0.000000 0.000000 0.000000 0.739517 16.947554 6.412768 52.850235 49.775294 18.941788 -5.500601 54.409964 1.638126 0.000000 0.000000 0.000000 
-0.025256 0.955422 -0.054265 -0.727421 -2.215915 3.928042 9.169317 -0.241716 -9.808477 -1.911115 0.285763 -4.062715 1.381483 9.219498 23.856296 0.000000 0.000000 0.000000 -8.338858 0.388906 -2.485929 4.384957 -0.437002 -3.595557 -10.974447 -23.900680 27.486785 0.000000 0.000000 0.000000 -2.145708 -0.330682 20.938364 -8.274065 2.859593 -17.582621 -2.061774 15.195959 30.547810 20.298629 -9.937631 -22.290531 0.000000 0.000000 0.000000 12.221674 -31.878215 8.144501 -39.602227 -62.514885 11.144607 14.718689 -30.991667 -3.095725 0.000000 0.000000 0.000000 -0.898550 18.265195 6.420156 55.648887 53.618892 23.187740 -13.277851 47.715447 -2.244258 0.000000 0.000000 0.000000 
-0.026672 0.956089 -0.055939 -0.727551 -2.373465 3.599829 9.276068 -0.223243 -9.960300 -1.930358 0.274101 -3.284517 1.411115 9.260826 23.984679 0.000000 0.000000 0.000000 -8.035573 0.377497 -2.411536 4.638728 -0.453561 -3.225647 -11.766541 -24.955650 26.911358 0.000000 0.000000 0.000000 -2.908982 -0.171096 21.430045 -8.386608 2.884048 -17.808224 -1.837211 15.330864 30.807050 19.995769 -9.715636 -22.257630 0.000000 0.000000 0.000000 14.711468 -32.783253 7.860392 -33.569634 -65.790797 8.727260 16.514256 -25.126106 -2.870269 0.000000 0.000000 0.000000 -2.693741 19.376201 6.264104 57.811772 58.275834 28.029271 -17.618286 39.879845 -3.646388 0.000000 0.000000 0.000000 
-0.027883 0.956974 -0.057752 -0.811922 -2.587887 2.876453 9.114188 -0.209801 -9.480222 -1.361194 0.216605 -2.839171 1.414486 9.268493 24.136382 0.000000 0.000000 0.000000 -7.842763 0.350671 -1.986276 4.973410 -0.476556 -3.008568 -12.339109 -25.675959 27.131046 0.000000 0.000000 0.000000 -3.753502 0.009222 22.219253 -8.290454 2.842453 -18.168286 -1.769110 15.687932 31.046041 20.006118 -9.994456 -21.463423 0.000000 0.000000 0.000000 17.094971 -34.185494 7.581519 -23.606753 -67.586373 3.175632 17.367674 -18.568189 -2.255976 0.000000 0.000000 0.000000 -4.213933 21.030316 6.313669 56.542642 62.504960 30.628641 -21.299762 32.169543 -4.126380 0.000000 0.000000 0.000000 
